{
  "accessors": [
    {
      "bufferView": 3,
      "componentType": 5126,
      "count": 65534,
      "max": [
        0.0932464599609375,
        0.4005126953125,
        0.1595916599035263
      ],
      "min": [
        -0.09296417236328125,
        -0.5,
        -0.323211669921875
      ],
      "type": "VEC3"
    },
    {
      "bufferView": 3,
      "byteOffset": 786408,
      "componentType": 5126,
      "count": 65534,
      "max": [
        0.9999864101409912,
        1.0,
        1.0
      ],
      "min": [
        -0.9999966621398926,
        -1.0,
        -1.0
      ],
      "type": "VEC3"
    },
    {
      "bufferView": 2,
      "componentType": 5126,
      "count": 65534,
      "max": [
        1.0,
        0.99755859375
      ],
      "min": [
        0.00048828125,
        0.000244140625
      ],
      "type": "VEC2"
    },
    {
      "bufferView": 1,
      "componentType": 5125,
      "count": 338964,
      "type": "SCALAR"
    },
    {
      "bufferView": 3,
      "byteOffset": 1572816,
      "componentType": 5126,
      "count": 49391,
      "max": [
        0.0632476806640625,
        0.5,
        0.323211669921875
      ],
      "min": [
        -0.09323883056640625,
        -0.498291015625,
        -0.1313934475183487
      ],
      "type": "VEC3"
    },
    {
      "bufferView": 3,
      "byteOffset": 2165508,
      "componentType": 5126,
      "count": 49391,
      "max": [
        1.0,
        0.9998685121536255,
        0.9999979734420776
      ],
      "min": [
        -1.0,
        -1.0,
        -1.0
      ],
      "type": "VEC3"
    },
    {
      "bufferView": 2,
      "byteOffset": 524272,
      "componentType": 5126,
      "count": 49391,
      "max": [
        1.0,
        0.997802734375
      ],
      "min": [
        0.002197265625,
        0.000244140625
      ],
      "type": "VEC2"
    },
    {
      "bufferView": 1,
      "byteOffset": 1355856,
      "componentType": 5125,
      "count": 251052,
      "type": "SCALAR"
    },
    {
      "bufferView": 5,
      "componentType": 5126,
      "count": 34,
      "max": [
        100.0,
        97.23821258544922,
        100.0,
        0.0,
        24.99744415283203,
        100.0,
        99.98120880126953,
        0.0,
        99.97381591796875,
        92.3394775390625,
        100.0,
        0.0,
        17.14586067199707,
        19.9029598236084,
        49.63275909423828,
        1.0
      ],
      "min": [
        -99.52168273925781,
        -10.973597526550293,
        -57.397762298583984,
        0.0,
        -27.11298179626465,
        -99.95384216308594,
        -91.6882095336914,
        0.0,
        -100.0,
        -92.33946990966797,
        -86.98115539550781,
        0.0,
        -8.626500129699707,
        -39.56500244140625,
        0.0,
        1.0
      ],
      "type": "MAT4"
    },
    {
      "bufferView": 0,
      "componentType": 5123,
      "count": 65534,
      "type": "VEC4"
    },
    {
      "bufferView": 4,
      "componentType": 5126,
      "count": 65534,
      "max": [
        1.0,
        0.4999910295009613,
        0.3142762780189514,
        0.22501623630523682
      ],
      "min": [
        0.2681915760040283,
        0.0,
        0.0,
        0.0
      ],
      "type": "VEC4"
    },
    {
      "bufferView": 0,
      "byteOffset": 524272,
      "componentType": 5123,
      "count": 49391,
      "type": "VEC4"
    },
    {
      "bufferView": 4,
      "byteOffset": 1048544,
      "componentType": 5126,
      "count": 49391,
      "max": [
        1.0,
        0.49998289346694946,
        0.32438164949417114,
        0.22185370326042175
      ],
      "min": [
        0.28311872482299805,
        0.0,
        0.0,
        0.0
      ],
      "type": "VEC4"
    }
  ],
  "asset": {
    "extras": {
      "author": "HAMAZ-EXE (https://sketchfab.com/HAMZA-EXE)",
      "license": "CC-BY-4.0 (http://creativecommons.org/licenses/by/4.0/)",
      "source": "https://sketchfab.com/3d-models/slenderman-bon-4f0446fc1b1840b9846d235829e9a23c",
      "title": "SlenderMan Bon"
    },
    "generator": "Sketchfab-16.72.0",
    "version": "2.0"
  },
  "bufferViews": [
    {
      "buffer": 0,
      "byteLength": 919400,
      "byteStride": 8,
      "name": "shortBufferViews",
      "target": 34962
    },
    {
      "buffer": 0,
      "byteLength": 2360064,
      "byteOffset": 919400,
      "name": "floatBufferViews",
      "target": 34963
    },
    {
      "buffer": 0,
      "byteLength": 919400,
      "byteOffset": 3279464,
      "byteStride": 8,
      "name": "floatBufferViews",
      "target": 34962
    },
    {
      "buffer": 0,
      "byteLength": 2758200,
      "byteOffset": 4198864,
      "byteStride": 12,
      "name": "floatBufferViews",
      "target": 34962
    },
    {
      "buffer": 0,
      "byteLength": 1838800,
      "byteOffset": 6957064,
      "byteStride": 16,
      "name": "floatBufferViews",
      "target": 34962
    },
    {
      "buffer": 0,
      "byteLength": 2176,
      "byteOffset": 8795864,
      "name": "floatBufferViews"
    }
  ],
  "buffers": [
    {
      "byteLength": 8798040,
      "uri": "scene.bin"
    }
  ],
  "images": [
    {
      "uri": "textures/tripo_mat_586b8d29_baseColor.jpeg"
    }
  ],
  "materials": [
    {
      "doubleSided": true,
      "name": "tripo_mat_586b8d29",
      "pbrMetallicRoughness": {
        "baseColorTexture": {
          "index": 0
        },
        "metallicFactor": 0.0,
        "roughnessFactor": 0.9214540227760786
      }
    }
  ],
  "meshes": [
    {
      "name": "tripo_node_586b8d29_tripo_mat_586b8d29_0",
      "primitives": [
        {
          "attributes": {
            "JOINTS_0": 9,
            "NORMAL": 1,
            "POSITION": 0,
            "TEXCOORD_0": 2,
            "WEIGHTS_0": 10
          },
          "indices": 3,
          "material": 0,
          "mode": 4
        }
      ]
    },
    {
      "name": "tripo_node_586b8d29_tripo_mat_586b8d29_0",
      "primitives": [
        {
          "attributes": {
            "JOINTS_0": 11,
            "NORMAL": 5,
            "POSITION": 4,
            "TEXCOORD_0": 6,
            "WEIGHTS_0": 12
          },
          "indices": 7,
          "material": 0,
          "mode": 4
        }
      ]
    }
  ],
  "nodes": [
    {
      "children": [
        1
      ],
      "matrix": [
        1.0,
        0.0,
        0.0,
        0.0,
        0.0,
        0.010769639164209588,
        -0.9999420046806335,
        0.0,
        0.0,
        0.9999420046806335,
        0.010769639164209588,
        0.0,
        0.0,
        0.0,
        0.0,
        1.0
      ],
      "name": "Sketchfab_model"
    },
    {
      "children": [
        2
      ],
      "matrix": [
        0.009999999776482582,
        0.0,
        0.0,
        0.0,
        0.0,
        0.0,
        0.009999999776482582,
        0.0,
        0.0,
        -0.009999999776482582,
        0.0,
        0.0,
        0.0,
        0.0,
        0.0,
        1.0
      ],
      "name": "f338b93e34e64f359585f43139c726ba.fbx"
    },
    {
      "children": [
        3
      ],
      "name": "Object_2"
    },
    {
      "children": [
        4
      ],
      "name": "RootNode"
    },
    {
      "children": [
        5,
        7,
        8,
        6,
        42
      ],
      "name": "Object_4"
    },
    {
      "children": [
        9
      ],
      "name": "_rootJoint"
    },
    {
      "matrix": [
        99.99999999999997,
        -1.7763568394002505e-15,
        1.262177448353619e-29,
        0.0,
        -7.764701396772559e-23,
        -4.371139000186243e-06,
        -99.99999999999993,
        0.0,
        1.7763568394002493e-15,
        99.9999999999999,
        -4.371139000186241e-06,
        0.0,
        -8.881784197001252e-16,
        0.0,
        7.888609052210118e-31,
        1.0
      ],
      "name": "Object_6"
    },
    {
      "mesh": 0,
      "name": "Object_7",
      "skin": 0
    },
    {
      "mesh": 1,
      "name": "Object_8",
      "skin": 0
    },
    {
      "children": [
        10,
        32,
        37
      ],
      "name": "mixamorig:Hips_01",
      "translation": [
        -1.994444727897644,
        8.847285270690918,
        -1.0078359054225433e-15
      ]
    },
    {
      "children": [
        11
      ],
      "name": "mixamorig:Spine_02",
      "rotation": [
        -0.05495099350810051,
        -0.0,
        0.0,
        0.9984890818595886
      ],
      "translation": [
        0.0,
        5.149869918823242,
        -0.5685595273971558
      ]
    },
    {
      "children": [
        12
      ],
      "name": "mixamorig:Spine1_03",
      "rotation": [
        -2.221675465818862e-08,
        -0.0,
        0.0,
        1.0
      ],
      "translation": [
        0.0,
        6.044686794281006,
        -1.5915451179182583e-09
      ]
    },
    {
      "children": [
        13,
        16,
        24
      ],
      "name": "mixamorig:Spine2_04",
      "rotation": [
        1.3877787807814457e-17,
        0.0,
        0.0,
        1.0
      ],
      "translation": [
        0.0,
        6.908213138580322,
        3.430443484830903e-08
      ]
    },
    {
      "children": [
        14
      ],
      "name": "mixamorig:Neck_05",
      "rotation": [
        0.0549510233104229,
        0.0,
        0.0,
        0.9984891414642334
      ],
      "translation": [
        0.0,
        7.7717390060424805,
        4.0789754507386533e-07
      ]
    },
    {
      "children": [
        15
      ],
      "name": "mixamorig:Head_06",
      "translation": [
        0.0,
        4.9683685302734375,
        2.6119847297668457
      ]
    },
    {
      "name": "mixamorig:HeadTop_End_07",
      "translation": [
        0.0,
        9.449394226074219,
        4.967761993408203
      ]
    },
    {
      "children": [
        17
      ],
      "name": "mixamorig:LeftShoulder_08",
      "rotation": [
        -0.5724542140960693,
        -0.4032653570175171,
        0.6023117899894714,
        -0.38326749205589294
      ],
      "translation": [
        2.9648828506469727,
        6.546555519104004,
        -0.15076680481433868
      ]
    },
    {
      "children": [
        18
      ],
      "name": "mixamorig:LeftArm_09",
      "rotation": [
        0.2753854990005493,
        0.10486642271280289,
        -0.030235713347792625,
        0.9551186561584473
      ],
      "translation": [
        -6.696407428563589e-09,
        6.305793762207031,
        -4.6500737482801924e-08
      ]
    },
    {
      "children": [
        19
      ],
      "name": "mixamorig:LeftForeArm_010",
      "rotation": [
        0.04419047385454178,
        0.0073245735839009285,
        0.1633549928665161,
        0.985550045967102
      ],
      "translation": [
        -2.460855519359484e-09,
        18.186378479003906,
        3.1189119908958673e-07
      ]
    },
    {
      "children": [
        20
      ],
      "name": "mixamorig:LeftHand_011",
      "rotation": [
        0.02277696132659912,
        0.0013019954785704613,
        0.05705490708351135,
        0.9981103539466858
      ],
      "translation": [
        9.406364576136639e-09,
        20.364412307739258,
        3.261077381466748e-07
      ]
    },
    {
      "children": [
        21
      ],
      "name": "mixamorig:LeftHandIndex1_012",
      "rotation": [
        0.16954831779003143,
        -0.002566735027357936,
        -0.014917761087417603,
        0.9854056239128113
      ],
      "translation": [
        -4.7117296730903035e-08,
        5.170332908630371,
        -9.538734957459383e-08
      ]
    },
    {
      "children": [
        22
      ],
      "name": "mixamorig:LeftHandIndex2_013",
      "rotation": [
        -6.938893903907228e-18,
        -2.7755575615628914e-17,
        2.7755575615628914e-17,
        1.0
      ],
      "translation": [
        -2.8814639563279343e-10,
        1.897699236869812,
        -1.2186150399884355e-07
      ]
    },
    {
      "children": [
        23
      ],
      "name": "mixamorig:LeftHandIndex3_014",
      "rotation": [
        -1.3877787807814457e-17,
        -2.7755575615628914e-17,
        -2.7755575615628914e-17,
        1.0
      ],
      "translation": [
        0.561072587966919,
        2.5039608478546143,
        1.2061080932617188
      ]
    },
    {
      "name": "mixamorig:LeftHandIndex4_015",
      "rotation": [
        1.0408340855860843e-17,
        -2.8888949165808538e-34,
        -2.7755575615628914e-17,
        1.0
      ],
      "translation": [
        0.7939044833183289,
        1.5817785263061523,
        1.0759278535842896
      ]
    },
    {
      "children": [
        25
      ],
      "name": "mixamorig:RightShoulder_016",
      "rotation": [
        0.5758084058761597,
        -0.400884747505188,
        0.5995533466339111,
        0.38506096601486206
      ],
      "translation": [
        -2.9648828506469727,
        6.543173313140869,
        -0.12013350427150726
      ]
    },
    {
      "children": [
        26
      ],
      "name": "mixamorig:RightArm_017",
      "rotation": [
        0.2755434215068817,
        -0.10080291330814362,
        0.02906772866845131,
        0.9555467963218689
      ],
      "translation": [
        6.734178548128966e-09,
        6.305793762207031,
        -4.6500765904511354e-08
      ]
    },
    {
      "children": [
        27
      ],
      "name": "mixamorig:RightForeArm_018",
      "rotation": [
        0.04488811269402504,
        -0.007012336980551481,
        -0.1541866660118103,
        0.9869966506958008
      ],
      "translation": [
        -3.1119498089537956e-08,
        18.176488876342773,
        -1.1960904089391988e-07
      ]
    },
    {
      "children": [
        28
      ],
      "name": "mixamorig:RightHand_019",
      "rotation": [
        0.011037393473088741,
        -0.0005359286442399025,
        -0.04849496856331825,
        0.998762309551239
      ],
      "translation": [
        -1.7687671061139554e-07,
        20.321014404296875,
        3.897127385243948e-07
      ]
    },
    {
      "children": [
        29
      ],
      "name": "mixamorig:RightHandIndex1_020",
      "rotation": [
        0.2171943336725235,
        -0.19724270701408386,
        0.04486147686839104,
        0.9549394845962524
      ],
      "translation": [
        5.953683057668968e-08,
        5.655706405639648,
        -7.61384484349037e-08
      ]
    },
    {
      "children": [
        30
      ],
      "name": "mixamorig:RightHandIndex2_021",
      "rotation": [
        1.942890293094024e-16,
        1.1102230246251565e-16,
        1.3877787807814457e-17,
        1.0
      ],
      "translation": [
        -5.789999590888328e-09,
        1.9999252557754517,
        -2.999281178972524e-08
      ]
    },
    {
      "children": [
        31
      ],
      "name": "mixamorig:RightHandIndex3_022",
      "rotation": [
        6.938893903907228e-18,
        8.326672684688674e-17,
        -5.7777898331617076e-34,
        1.0
      ],
      "translation": [
        0.7458376884460449,
        2.232212543487549,
        1.3520135879516602
      ]
    },
    {
      "name": "mixamorig:RightHandIndex4_023",
      "rotation": [
        6.938893903907228e-18,
        5.551115123125783e-17,
        1.3877787807814457e-17,
        1.0
      ],
      "translation": [
        0.0042526512406766415,
        1.692128300666809,
        0.9891999959945679
      ]
    },
    {
      "children": [
        33
      ],
      "name": "mixamorig:LeftUpLeg_024",
      "rotation": [
        -0.0001143658155342564,
        -0.009993861429393291,
        0.9998846054077148,
        -0.011442285031080246
      ],
      "translation": [
        3.908503532409668,
        -2.8576951026916504,
        -0.16733038425445557
      ]
    },
    {
      "children": [
        34
      ],
      "name": "mixamorig:LeftLeg_025",
      "rotation": [
        -0.021971670910716057,
        -0.00013124520773999393,
        0.005971834063529968,
        0.9997408390045166
      ],
      "translation": [
        -1.6354384513306286e-09,
        25.87969398498535,
        1.8101651733104518e-08
      ]
    },
    {
      "children": [
        35
      ],
      "name": "mixamorig:LeftFoot_026",
      "rotation": [
        0.5017947554588318,
        -0.08436738699674606,
        0.04925825819373131,
        0.8594520688056946
      ],
      "translation": [
        3.7426957533170935e-08,
        24.05160903930664,
        5.862538188239341e-08
      ]
    },
    {
      "children": [
        36
      ],
      "name": "mixamorig:LeftToeBase_027",
      "rotation": [
        0.28183692693710327,
        -0.03746660426259041,
        0.011014734394848347,
        0.9586673378944397
      ],
      "translation": [
        -5.067595409968817e-08,
        10.90360164642334,
        -1.2365724444407533e-07
      ]
    },
    {
      "name": "mixamorig:LeftToe_End_028",
      "rotation": [
        1.6975318720136023e-11,
        3.382710778154774e-17,
        -1.3877787807814457e-17,
        1.0
      ],
      "translation": [
        -6.9266672397816365e-09,
        4.473978042602539,
        -2.842739377229009e-10
      ]
    },
    {
      "children": [
        38
      ],
      "name": "mixamorig:RightUpLeg_00",
      "rotation": [
        0.00014405966794583946,
        -0.0125901373103261,
        0.9998552799224854,
        0.011440607719123363
      ],
      "translation": [
        -3.908503532409668,
        -2.8576951026916504,
        -0.11483895778656006
      ]
    },
    {
      "children": [
        39
      ],
      "name": "mixamorig:RightLeg_029",
      "rotation": [
        -0.021658524870872498,
        0.00012927922944072634,
        -0.005967470817267895,
        0.999747633934021
      ],
      "translation": [
        -1.5567248823344926e-08,
        25.882728576660156,
        -7.90090770586005e-10
      ]
    },
    {
      "children": [
        40
      ],
      "name": "mixamorig:RightFoot_030",
      "rotation": [
        0.5069935321807861,
        0.08263134956359863,
        -0.04890765622258186,
        0.856584906578064
      ],
      "translation": [
        -4.339671022535185e-08,
        24.05888557434082,
        8.558133401947998e-08
      ]
    },
    {
      "children": [
        41
      ],
      "name": "mixamorig:RightToeBase_031",
      "rotation": [
        0.27833065390586853,
        0.03987286984920502,
        -0.011565218679606915,
        0.9595877528190613
      ],
      "translation": [
        -3.884912658236317e-08,
        11.029521942138672,
        -2.1845974629286502e-07
      ]
    },
    {
      "name": "mixamorig:RightToe_End_032",
      "rotation": [
        8.629762876521951e-11,
        3.458604930228759e-17,
        -2.7755575615628914e-17,
        1.0
      ],
      "translation": [
        1.7690677367454555e-08,
        4.500747203826904,
        -8.258638217739644e-11
      ]
    },
    {
      "name": "tripo_node_586b8d29",
      "rotation": [
        -0.7071068286895752,
        0.0,
        0.0,
        0.7071068286895752
      ],
      "scale": [
        100.0,
        100.0,
        100.0
      ]
    }
  ],
  "samplers": [
    {
      "magFilter": 9729,
      "minFilter": 9987,
      "wrapS": 10497,
      "wrapT": 10497
    }
  ],
  "scene": 0,
  "scenes": [
    {
      "name": "Sketchfab_Scene",
      "nodes": [
        0
      ]
    }
  ],
  "skins": [
    {
      "inverseBindMatrices": 8,
      "joints": [
        5,
        9,
        10,
        11,
        12,
        13,
        14,
        15,
        16,
        17,
        18,
        19,
        20,
        21,
        22,
        23,
        24,
        25,
        26,
        27,
        28,
        29,
        30,
        31,
        32,
        33,
        34,
        35,
        36,
        37,
        38,
        39,
        40,
        41
      ],
      "skeleton": 5
    }
  ],
  "textures": [
    {
      "sampler": 0,
      "source": 0
    }
  ]
}
