{
  "accessors": [
    {
      "bufferView": 2,
      "componentType": 5126,
      "count": 3862,
      "max": [
        2.516944169998169,
        9.246543884277344,
        0.8543301224708557
      ],
      "min": [
        -2.5094544887542725,
        0.0014476776123046875,
        -0.8906187415122986
      ],
      "type": "VEC3"
    },
    {
      "bufferView": 2,
      "byteOffset": 46344,
      "componentType": 5126,
      "count": 3862,
      "max": [
        0.9998248219490051,
        0.9997806549072266,
        0.9999288320541382
      ],
      "min": [
        -0.9998247027397156,
        -1.0,
        -0.9999557733535767
      ],
      "type": "VEC3"
    },
    {
      "bufferView": 3,
      "componentType": 5126,
      "count": 3862,
      "max": [
        1.0,
        0.9999783635139465,
        0.9977356791496277,
        1.0
      ],
      "min": [
        -0.9998855590820313,
        -0.9904044270515442,
        -0.9998984932899475,
        -1.0
      ],
      "type": "VEC4"
    },
    {
      "bufferView": 1,
      "componentType": 5126,
      "count": 3862,
      "max": [
        0.9857547283172607,
        0.9918423295021057
      ],
      "min": [
        0.006432752590626478,
        0.006432752590626478
      ],
      "type": "VEC2"
    },
    {
      "bufferView": 0,
      "componentType": 5125,
      "count": 18900,
      "type": "SCALAR"
    }
  ],
  "asset": {
    "extras": {
      "author": "ChrisG (https://sketchfab.com/christianguevara)",
      "license": "CC-BY-4.0 (http://creativecommons.org/licenses/by/4.0/)",
      "source": "https://sketchfab.com/3d-models/baby-groot-36a1c611c5164f39a4fa7cb4faebd458",
      "title": "Baby Groot"
    },
    "generator": "Sketchfab-12.65.0",
    "version": "2.0"
  },
  "bufferViews": [
    {
      "buffer": 0,
      "byteLength": 75600,
      "name": "floatBufferViews",
      "target": 34963
    },
    {
      "buffer": 0,
      "byteLength": 30896,
      "byteOffset": 75600,
      "byteStride": 8,
      "name": "floatBufferViews",
      "target": 34962
    },
    {
      "buffer": 0,
      "byteLength": 92688,
      "byteOffset": 106496,
      "byteStride": 12,
      "name": "floatBufferViews",
      "target": 34962
    },
    {
      "buffer": 0,
      "byteLength": 61792,
      "byteOffset": 199184,
      "byteStride": 16,
      "name": "floatBufferViews",
      "target": 34962
    }
  ],
  "buffers": [
    {
      "byteLength": 260976,
      "uri": "scene.bin"
    }
  ],
  "images": [
    {
      "uri": "textures/Scene_-_Root_baseColor.png"
    },
    {
      "uri": "textures/Scene_-_Root_metallicRoughness.png"
    },
    {
      "uri": "textures/Scene_-_Root_normal.png"
    }
  ],
  "materials": [
    {
      "doubleSided": true,
      "name": "Scene_-_Root",
      "normalTexture": {
        "index": 2,
        "scale": 0.7
      },
      "pbrMetallicRoughness": {
        "baseColorTexture": {
          "index": 0
        },
        "metallicFactor": 0.0,
        "metallicRoughnessTexture": {
          "index": 1
        }
      }
    }
  ],
  "meshes": [
    {
      "name": "Groot_LPol__0",
      "primitives": [
        {
          "attributes": {
            "NORMAL": 1,
            "POSITION": 0,
            "TANGENT": 2,
            "TEXCOORD_0": 3
          },
          "indices": 4,
          "material": 0,
          "mode": 4
        }
      ]
    }
  ],
  "nodes": [
    {
      "children": [
        1
      ],
      "matrix": [
        0.001113212900236249,
        0.0,
        0.0,
        0.0,
        0.0,
        2.471829186304062e-19,
        -0.001113212900236249,
        0.0,
        0.0,
        0.001113212900236249,
        2.471829186304062e-19,
        0.0,
        0.0,
        0.0,
        0.0,
        1.0
      ],
      "name": "Sketchfab_model"
    },
    {
      "children": [
        2
      ],
      "matrix": [
        1.0,
        0.0,
        0.0,
        0.0,
        0.0,
        0.0,
        1.0,
        0.0,
        0.0,
        -1.0,
        0.0,
        0.0,
        0.0,
        0.0,
        0.0,
        1.0
      ],
      "name": "Groot_Final.fbx"
    },
    {
      "children": [
        3
      ],
      "name": "RootNode"
    },
    {
      "children": [
        4
      ],
      "matrix": [
        100.0,
        0.0,
        0.0,
        0.0,
        0.0,
        99.99999999999866,
        1.6292067073209114e-05,
        0.0,
        0.0,
        -1.6292067073209114e-05,
        99.99999999999866,
        0.0,
        0.0,
        0.0,
        -7.450580596923828e-07,
        1.0
      ],
      "name": "Groot_LPol"
    },
    {
      "mesh": 0,
      "name": "Groot_LPol__0"
    }
  ],
  "samplers": [
    {
      "magFilter": 9729,
      "minFilter": 9987,
      "wrapS": 10497,
      "wrapT": 10497
    }
  ],
  "scene": 0,
  "scenes": [
    {
      "name": "Sketchfab_Scene",
      "nodes": [
        0
      ]
    }
  ],
  "textures": [
    {
      "sampler": 0,
      "source": 0
    },
    {
      "sampler": 0,
      "source": 1
    },
    {
      "sampler": 0,
      "source": 2
    }
  ]
}
